<?xml version="1.0" encoding="iso-8859-1"?>
<!-- Uploaded to: SVG Repo, www.svgrepo.com, Generator: SVG Repo Mixer Tools -->
<svg version="1.1" id="Layer_1" xmlns="http://www.w3.org/2000/svg" xmlns:xlink="http://www.w3.org/1999/xlink" 
	 viewBox="0 0 511.999 511.999" xml:space="preserve">
<path style="fill:#FBD698;" d="M319.196,126.363h-6.237L338.752,24.39h-98.089v101.973h-47.861C86.321,126.363,0,212.685,0,319.166
	s86.321,192.803,192.803,192.803h126.394c106.482,0,192.803-86.321,192.803-192.803S425.679,126.363,319.196,126.363z"/>
<path style="fill:#FEDFB5;" d="M173.248,0.03l25.793,126.333h-6.237C86.321,126.363,0,212.685,0,319.166
	s86.321,192.803,192.803,192.803h63.196V126.363V0.03H173.248z"/>
<circle style="fill:#3AB94B;" cx="256.001" cy="319.168" r="145.913"/>
<path style="fill:#75EF84;" d="M256,173.256c-80.584,0-145.91,65.327-145.91,145.91c0,80.584,65.327,145.911,145.91,145.911V173.256
	z"/>
<path style="fill:#B7FFB9;" d="M301.026,314.987c-8.007-5.341-17.844-8.831-29.354-10.447v-46.182
	c4.798,1.047,8.835,2.624,11.96,4.71c3.759,2.507,8.074,6.718,8.074,17.102h31.343c0-18.635-7.615-33.564-22.023-43.176
	c-8.007-5.341-17.844-8.831-29.354-10.447v-18.412h-31.343v18.412c-11.51,1.616-21.347,5.106-29.354,10.447
	c-14.407,9.612-22.023,24.542-22.023,43.176s7.615,33.564,22.023,43.175c8.007,5.341,17.844,8.831,29.354,10.447v46.183
	c-4.798-1.047-8.835-2.624-11.96-4.71c-3.759-2.507-8.074-6.718-8.074-17.102h-31.343c0,18.635,7.615,33.564,22.023,43.176
	c8.007,5.341,17.844,8.831,29.354,10.447v18.412h31.343v-18.412c11.51-1.616,21.347-5.106,29.354-10.447
	c14.407-9.612,22.023-24.542,22.023-43.176C323.048,339.529,315.433,324.599,301.026,314.987z M228.368,297.272
	c-3.759-2.507-8.073-6.717-8.073-17.102s4.314-14.594,8.074-17.102c3.125-2.085,7.162-3.663,11.96-4.71v43.624
	C235.531,300.935,231.494,299.357,228.368,297.272z M283.631,375.265c-3.125,2.085-7.162,3.663-11.96,4.71V336.35
	c4.798,1.047,8.835,2.624,11.96,4.71c3.759,2.507,8.074,6.718,8.074,17.102S287.39,372.758,283.631,375.265z"/>
<rect x="177.643" y="93.131" style="fill:#C23700;" width="156.716" height="33.824"/>
</svg>